<mxfile host="app.diagrams.net" modified="2021-06-03T02:35:03.791Z" agent="5.0 (Windows NT 10.0; Win64; x64) AppleWebKit/537.36 (KHTML, like Gecko) Chrome/85.0.4183.83 Safari/537.36" etag="eaoezNuYHwywqIiaHNSY" version="14.7.3" type="github">
  <diagram id="QMpFOrDQVjm5szPIj6a2" name="第 1 页">
    <mxGraphModel dx="1408" dy="748" grid="1" gridSize="10" guides="1" tooltips="1" connect="1" arrows="1" fold="1" page="1" pageScale="1" pageWidth="1654" pageHeight="1169" math="0" shadow="0">
      <root>
        <mxCell id="0" />
        <mxCell id="1" parent="0" />
        <mxCell id="IZO2P5DEIl54OF0cuKoT-1" value="" style="ellipse;whiteSpace=wrap;html=1;sketch=1;fillColor=#F694C1;strokeColor=#AF45ED;fontColor=#095C86;" vertex="1" parent="1">
          <mxGeometry x="330" y="210" width="120" height="80" as="geometry" />
        </mxCell>
        <mxCell id="IZO2P5DEIl54OF0cuKoT-3" style="edgeStyle=orthogonalEdgeStyle;rounded=0;orthogonalLoop=1;jettySize=auto;html=1;entryX=1;entryY=0.5;entryDx=0;entryDy=0;sketch=1;strokeColor=#60E696;fontColor=#095C86;" edge="1" parent="1" source="IZO2P5DEIl54OF0cuKoT-2" target="IZO2P5DEIl54OF0cuKoT-1">
          <mxGeometry relative="1" as="geometry" />
        </mxCell>
        <mxCell id="IZO2P5DEIl54OF0cuKoT-2" value="" style="rounded=1;whiteSpace=wrap;html=1;sketch=1;fillColor=#F694C1;strokeColor=#AF45ED;fontColor=#095C86;" vertex="1" parent="1">
          <mxGeometry x="570" y="220" width="120" height="60" as="geometry" />
        </mxCell>
      </root>
    </mxGraphModel>
  </diagram>
</mxfile>
